<svg width="37" height="48" viewBox="0 0 37 48" fill="none" xmlns="http://www.w3.org/2000/svg">
<path d="M19.608 10.608V13.296C19.032 13.296 18.264 13.312 17.304 13.344C16.344 13.344 15.336 13.36 14.28 13.392C13.224 13.424 12.264 13.456 11.4 13.488C10.568 13.52 9.976 13.552 9.624 13.584C9.144 13.616 8.52 13.696 7.752 13.824C7.016 13.952 6.424 14.096 5.976 14.256C5.304 13.968 4.616 13.6 3.912 13.152C3.24 12.704 2.648 12.256 2.136 11.808C1.976 11.648 1.928 11.456 1.992 11.232L2.328 10.608C3.032 10.736 3.768 10.832 4.536 10.896C5.336 10.928 6.04 10.944 6.648 10.944C7 10.944 7.592 10.944 8.424 10.944C9.288 10.912 10.248 10.896 11.304 10.896C12.392 10.864 13.48 10.832 14.568 10.8C15.688 10.768 16.696 10.736 17.592 10.704C18.488 10.672 19.16 10.64 19.608 10.608ZM23.928 13.344L18.216 13.296L19.56 10.608L21.384 9.84C21.704 9.712 22.024 9.712 22.344 9.84C22.696 10 23.144 10.208 23.688 10.464C24.264 10.72 24.68 10.944 24.936 11.136C25.192 11.296 25.208 11.52 24.984 11.808L23.928 13.344ZM24.456 27.6L15.864 20.784L22.776 22.224L25.032 22.8C25.448 23.248 25.864 23.76 26.28 24.336C26.696 24.88 27.016 25.36 27.24 25.776C27.56 26.32 27.672 26.768 27.576 27.12C27.448 27.504 27.192 27.808 26.808 28.032C26.424 28.256 26.056 28.336 25.704 28.272C25.512 28.272 25.304 28.208 25.08 28.08C24.856 27.92 24.648 27.76 24.456 27.6ZM22.776 22.224L22.488 22.56L15.864 20.784L17.592 18.432L22.776 22.224ZM1.224 30.624L0.6 29.952C0.44 29.76 0.44 29.568 0.6 29.376C4.472 27.168 7.912 24.64 10.92 21.792C13.96 18.944 16.392 16.112 18.216 13.296L21.144 12.288L23.928 13.344C22.552 15.616 20.728 17.84 18.456 20.016C16.216 22.192 13.672 24.192 10.824 26.016C7.976 27.808 4.968 29.328 1.8 30.576C1.512 30.704 1.32 30.72 1.224 30.624ZM34.824 30.096H32.136C32.072 29.648 32.008 29.072 31.944 28.368C31.88 27.664 31.816 26.912 31.752 26.112C31.72 25.312 31.688 24.544 31.656 23.808C31.656 23.04 31.656 22.416 31.656 21.936V5.328C31.304 4.816 30.776 4.32 30.072 3.84C29.368 3.36 28.6 2.976 27.768 2.688L28.248 1.2C28.312 1.008 28.536 0.911997 28.92 0.911997C29.592 0.943998 30.36 1.04 31.224 1.2C32.12 1.328 32.984 1.488 33.816 1.68C34.648 1.872 35.32 2.096 35.832 2.352C36.28 2.512 36.488 2.896 36.456 3.504L36.312 6.192V20.64C36.312 21.6 36.248 22.672 36.12 23.856C35.992 25.04 35.816 26.192 35.592 27.312C35.368 28.4 35.112 29.328 34.824 30.096ZM35.688 38.544C35.688 40.304 35.224 41.84 34.296 43.152C33.368 44.496 32.104 45.536 30.504 46.272C28.936 47.008 27.144 47.376 25.128 47.376C23.176 47.376 21.4 47.008 19.8 46.272C18.2 45.536 16.92 44.496 15.96 43.152C15.032 41.84 14.568 40.304 14.568 38.544C14.568 36.848 15.032 35.376 15.96 34.128C16.92 32.88 18.2 31.92 19.8 31.248C21.4 30.544 23.176 30.192 25.128 30.192C27.144 30.192 28.936 30.544 30.504 31.248C32.104 31.92 33.368 32.88 34.296 34.128C35.224 35.376 35.688 36.848 35.688 38.544ZM30.888 38.544C30.888 36.912 30.344 35.648 29.256 34.752C28.168 33.824 26.792 33.36 25.128 33.36C23.464 33.36 22.088 33.824 21 34.752C19.912 35.648 19.368 36.912 19.368 38.544C19.368 40.144 19.912 41.392 21 42.288C22.088 43.184 23.464 43.632 25.128 43.632C26.792 43.632 28.168 43.184 29.256 42.288C30.344 41.392 30.888 40.144 30.888 38.544ZM7.368 4.08L7.8 3.6C9.816 3.984 11.784 4.24 13.704 4.368C15.656 4.464 17.384 4.512 18.888 4.512C19.336 4.512 19.624 4.672 19.752 4.992C19.912 5.28 19.96 5.68 19.896 6.192C19.864 6.704 19.752 7.072 19.56 7.296C19.432 7.488 19.176 7.584 18.792 7.584C18.088 7.584 17.272 7.6 16.344 7.632C15.448 7.632 14.552 7.648 13.656 7.68C12.792 7.712 12.024 7.76 11.352 7.824C11.128 7.824 10.936 7.824 10.776 7.824C10.648 7.792 10.504 7.728 10.344 7.632C9.864 7.312 9.352 6.88 8.808 6.336C8.264 5.792 7.8 5.232 7.416 4.656C7.288 4.432 7.272 4.24 7.368 4.08Z" fill="#2563EB"/>
</svg>
